<?xml version="1.0" encoding="UTF-8" standalone="no"?>
<svg
   width="16"
   height="16"
   version="1.1"
   id="svg4"
   sodipodi:docname="hurt_box.svg"
   xml:space="preserve"
   inkscape:version="1.2.2 (b0a8486541, 2022-12-01)"
   xmlns:inkscape="http://www.inkscape.org/namespaces/inkscape"
   xmlns:sodipodi="http://sodipodi.sourceforge.net/DTD/sodipodi-0.dtd"
   xmlns="http://www.w3.org/2000/svg"
   xmlns:svg="http://www.w3.org/2000/svg"><defs
     id="defs8" /><sodipodi:namedview
     id="namedview6"
     pagecolor="#505050"
     bordercolor="#ffffff"
     borderopacity="1"
     inkscape:showpageshadow="0"
     inkscape:pageopacity="0"
     inkscape:pagecheckerboard="1"
     inkscape:deskcolor="#505050"
     showgrid="false"
     inkscape:zoom="36.990524"
     inkscape:cx="6.4205634"
     inkscape:cy="8.258872"
     inkscape:window-width="1920"
     inkscape:window-height="1004"
     inkscape:window-x="0"
     inkscape:window-y="0"
     inkscape:window-maximized="1"
     inkscape:current-layer="svg4" /><path
     fill="#8da5f3"
     d="M 1,1 V 5 H 3 V 3 H 5 V 1 Z m 10,0 v 2 h 2 v 2 h 2 V 1 Z M 4,12 C 1.3333333,4 2.6666667,8 4,12 Z M 1,11 v 4 H 5 V 13 H 3 v -2 z m 12,0 v 2 h -2 v 2 h 4 v -4 z"
     id="path2"
     sodipodi:nodetypes="cccccccccccccccccccccccccccccc"
     style="fill:#f03131;fill-opacity:1" /><g
     style="fill:none;stroke:currentColor;stroke-width:1.57081047;stroke-linecap:round;stroke-linejoin:miter;stroke-dasharray:none"
     id="g1260"
     transform="matrix(1.0020732,0,0,0.90998764,15.549736,-3.725882)"><path
       d="m -3.8707046,9.3578543 c -0.8897184,-1.0168526 -2.3326804,-1.0168526 -3.2223986,0 L -7.5321447,9.8593964 -7.9711861,9.3578543 C -8.672476,8.5569302 -9.4882322,8.4097475 -10.194253,8.6601879 c -0.01531,0.00543 -0.03058,0.011053 -0.04579,0.016857 -1.431485,0.5462769 -2.385302,2.7267611 -0.953541,4.3619371 l 0.439042,0.501541 3.2223984,3.681127 3.2223986,-3.681127 0.4390415,-0.501541 c 0.8901361,-1.016376 0.8901361,-2.664752 0,-3.6811281 z"
       id="path42"
       style="fill:#f03131;stroke:none;stroke-width:1.57081047;stroke-dasharray:none;stroke-opacity:1;stroke-linejoin:miter;fill-opacity:1"
       sodipodi:nodetypes="ccccsscccccc" /></g></svg>
